<svg width="41" height="40" viewBox="0 0 41 40" fill="none" xmlns="http://www.w3.org/2000/svg">
<circle cx="20.1426" cy="20" r="20" fill="#3F19F9"/>
<path fill-rule="evenodd" clip-rule="evenodd" d="M30.9997 19.4286C30.9997 25.1387 26.812 29.8708 21.3402 30.7211C21.0063 30.7729 20.714 30.5076 20.714 30.1697V21.7143H22.9997C23.6309 21.7143 24.1426 21.2026 24.1426 20.5714C24.1426 19.9402 23.6309 19.4286 22.9997 19.4286H20.714V17.1429C20.714 16.5117 21.2257 16 21.8569 16H22.9997C23.6309 16 24.1426 15.4883 24.1426 14.8571C24.1426 14.226 23.6309 13.7143 22.9997 13.7143H21.8569C19.9633 13.7143 18.4283 15.2493 18.4283 17.1429V19.4286H17.2854C16.6543 19.4286 16.1426 19.9402 16.1426 20.5714C16.1426 21.2026 16.6543 21.7143 17.2854 21.7143H18.4283V30.1697C18.4283 30.5076 18.136 30.7729 17.8021 30.7211C12.3303 29.8708 8.14258 25.1387 8.14258 19.4286C8.14258 13.1167 13.2593 8 19.5712 8C25.883 8 30.9997 13.1167 30.9997 19.4286Z" fill="#DAFF00"/>
</svg>
