<svg width="41" height="41" viewBox="0 0 41 41" fill="none" xmlns="http://www.w3.org/2000/svg">
<circle cx="20.2856" cy="20.5" r="20" fill="#DAFF00"/>
<path fill-rule="evenodd" clip-rule="evenodd" d="M31.1428 19.9286C31.1428 25.6387 26.9551 30.3708 21.4833 31.2211C21.1494 31.2729 20.8571 31.0076 20.8571 30.6697V22.2143H23.1428C23.774 22.2143 24.2856 21.7026 24.2856 21.0714C24.2856 20.4402 23.774 19.9286 23.1428 19.9286H20.8571V17.6429C20.8571 17.0117 21.3687 16.5 21.9999 16.5H23.1428C23.774 16.5 24.2856 15.9883 24.2856 15.3571C24.2856 14.726 23.774 14.2143 23.1428 14.2143H21.9999C20.1064 14.2143 18.5714 15.7493 18.5714 17.6429V19.9286H17.4285C16.7973 19.9286 16.2856 20.4402 16.2856 21.0714C16.2856 21.7026 16.7973 22.2143 17.4285 22.2143H18.5714V30.6697C18.5714 31.0076 18.2791 31.2729 17.9452 31.2211C12.4734 30.3708 8.28564 25.6387 8.28564 19.9286C8.28564 13.6167 13.4024 8.5 19.7142 8.5C26.026 8.5 31.1428 13.6167 31.1428 19.9286Z" fill="#010A01"/>
</svg>
