<svg width="41" height="41" viewBox="0 0 41 41" fill="none" xmlns="http://www.w3.org/2000/svg">
<circle cx="20.8569" cy="20.5" r="20" fill="#DAFF00"/>
<path fill-rule="evenodd" clip-rule="evenodd" d="M10 14.214C10 11.6893 12.0467 9.64258 14.5714 9.64258H26C28.5247 9.64258 30.5714 11.6893 30.5714 14.214V25.6426C30.5714 28.1673 28.5247 30.214 26 30.214H14.5714C12.0467 30.214 10 28.1673 10 25.6426V14.214ZM20.2857 17.6426C19.0233 17.6426 18 18.6659 18 19.9283C18 21.1907 19.0233 22.214 20.2857 22.214C21.5481 22.214 22.5714 21.1907 22.5714 19.9283C22.5714 18.6659 21.5481 17.6426 20.2857 17.6426ZM15.7143 19.9283C15.7143 17.4036 17.761 15.3569 20.2857 15.3569C22.8104 15.3569 24.8571 17.4036 24.8571 19.9283C24.8571 22.453 22.8104 24.4997 20.2857 24.4997C17.761 24.4997 15.7143 22.453 15.7143 19.9283ZM26.5714 14.7854C27.2026 14.7854 27.7143 14.2738 27.7143 13.6426C27.7143 13.0114 27.2026 12.4997 26.5714 12.4997C25.9402 12.4997 25.4286 13.0114 25.4286 13.6426C25.4286 14.2738 25.9402 14.7854 26.5714 14.7854Z" fill="#010A01"/>
</svg>
