<svg width="41" height="40" viewBox="0 0 41 40" fill="none" xmlns="http://www.w3.org/2000/svg">
<circle cx="20.7139" cy="20" r="20" fill="#3F19F9"/>
<path fill-rule="evenodd" clip-rule="evenodd" d="M9.85693 13.714C9.85693 11.1893 11.9036 9.14258 14.4284 9.14258H25.8569C28.3817 9.14258 30.4284 11.1893 30.4284 13.714V25.1426C30.4284 27.6673 28.3817 29.714 25.8569 29.714H14.4284C11.9036 29.714 9.85693 27.6673 9.85693 25.1426V13.714ZM20.1426 17.1426C18.8803 17.1426 17.8569 18.1659 17.8569 19.4283C17.8569 20.6907 18.8803 21.714 20.1426 21.714C21.405 21.714 22.4284 20.6907 22.4284 19.4283C22.4284 18.1659 21.405 17.1426 20.1426 17.1426ZM15.5712 19.4283C15.5712 16.9036 17.6179 14.8569 20.1426 14.8569C22.6674 14.8569 24.7141 16.9036 24.7141 19.4283C24.7141 21.953 22.6674 23.9997 20.1426 23.9997C17.6179 23.9997 15.5712 21.953 15.5712 19.4283ZM26.4284 14.2854C27.0595 14.2854 27.5712 13.7738 27.5712 13.1426C27.5712 12.5114 27.0595 11.9997 26.4284 11.9997C25.7972 11.9997 25.2855 12.5114 25.2855 13.1426C25.2855 13.7738 25.7972 14.2854 26.4284 14.2854Z" fill="#DAFF00"/>
</svg>
