<svg width="41" height="41" viewBox="0 0 41 41" fill="none" xmlns="http://www.w3.org/2000/svg">
<circle cx="20.7144" cy="20.5" r="20" fill="#DAFF00"/>
<path fill-rule="evenodd" clip-rule="evenodd" d="M9.85693 15.1283C9.85693 13.2081 9.85693 12.248 10.2306 11.5146C10.5593 10.8695 11.0838 10.345 11.729 10.0163C12.4624 9.64258 13.4225 9.64258 15.3426 9.64258H24.9426C26.8628 9.64258 27.8229 9.64258 28.5563 10.0163C29.2015 10.345 29.726 10.8695 30.0547 11.5146C30.4284 12.248 30.4284 13.2081 30.4284 15.1283V24.7283C30.4284 26.6485 30.4284 27.6086 30.0547 28.342C29.726 28.9871 29.2015 29.5116 28.5563 29.8403C27.8229 30.214 26.8628 30.214 24.9426 30.214H15.3426C13.4225 30.214 12.4624 30.214 11.729 29.8403C11.0838 29.5116 10.5593 28.9871 10.2306 28.342C9.85693 27.6086 9.85693 26.6485 9.85693 24.7283V15.1283ZM14.4284 19.9283C14.4284 19.2971 14.94 18.7854 15.5712 18.7854C16.2024 18.7854 16.7141 19.2971 16.7141 19.9283V24.4997C16.7141 25.1309 16.2024 25.6426 15.5712 25.6426C14.94 25.6426 14.4284 25.1309 14.4284 24.4997V19.9283ZM15.5712 16.4997C16.2024 16.4997 16.7141 15.988 16.7141 15.3569C16.7141 14.7257 16.2024 14.214 15.5712 14.214C14.94 14.214 14.4284 14.7257 14.4284 15.3569C14.4284 15.988 14.94 16.4997 15.5712 16.4997ZM22.4284 21.0711C21.7972 21.0711 21.2855 21.5828 21.2855 22.214V24.4997C21.2855 25.1309 20.7738 25.6426 20.1426 25.6426C19.5115 25.6426 18.9998 25.1309 18.9998 24.4997V22.214V19.9283C18.9998 19.2971 19.5115 18.7854 20.1426 18.7854C20.4579 18.7854 20.7434 18.9131 20.9502 19.1196C21.3978 18.9054 21.8991 18.7854 22.4284 18.7854C24.3219 18.7854 25.8569 20.3205 25.8569 22.214V24.4997C25.8569 25.1309 25.3453 25.6426 24.7141 25.6426C24.0829 25.6426 23.5712 25.1309 23.5712 24.4997V22.214C23.5712 21.5828 23.0595 21.0711 22.4284 21.0711Z" fill="#010A01"/>
</svg>
