<svg width="41" height="40" viewBox="0 0 41 40" fill="none" xmlns="http://www.w3.org/2000/svg">
<circle cx="20.5713" cy="20" r="20" fill="#3F19F9"/>
<path fill-rule="evenodd" clip-rule="evenodd" d="M9.71387 14.6283C9.71387 12.7081 9.71387 11.748 10.0876 11.0146C10.4163 10.3695 10.9408 9.84498 11.5859 9.51627C12.3193 9.14258 13.2794 9.14258 15.1996 9.14258H24.7996C26.7198 9.14258 27.6799 9.14258 28.4133 9.51627C29.0584 9.84498 29.5829 10.3695 29.9116 11.0146C30.2853 11.748 30.2853 12.7081 30.2853 14.6283V24.2283C30.2853 26.1485 30.2853 27.1086 29.9116 27.842C29.5829 28.4871 29.0584 29.0116 28.4133 29.3403C27.6799 29.714 26.7198 29.714 24.7996 29.714H15.1996C13.2794 29.714 12.3193 29.714 11.5859 29.3403C10.9408 29.0116 10.4163 28.4871 10.0876 27.842C9.71387 27.1086 9.71387 26.1485 9.71387 24.2283V14.6283ZM14.2853 19.4283C14.2853 18.7971 14.797 18.2854 15.4282 18.2854C16.0593 18.2854 16.571 18.7971 16.571 19.4283V23.9997C16.571 24.6309 16.0593 25.1426 15.4282 25.1426C14.797 25.1426 14.2853 24.6309 14.2853 23.9997V19.4283ZM15.4282 15.9997C16.0593 15.9997 16.571 15.488 16.571 14.8569C16.571 14.2257 16.0593 13.714 15.4282 13.714C14.797 13.714 14.2853 14.2257 14.2853 14.8569C14.2853 15.488 14.797 15.9997 15.4282 15.9997ZM22.2853 20.5711C21.6541 20.5711 21.1424 21.0828 21.1424 21.714V23.9997C21.1424 24.6309 20.6308 25.1426 19.9996 25.1426C19.3684 25.1426 18.8567 24.6309 18.8567 23.9997V21.714V19.4283C18.8567 18.7971 19.3684 18.2854 19.9996 18.2854C20.3149 18.2854 20.6003 18.4131 20.8071 18.6196C21.2547 18.4054 21.756 18.2854 22.2853 18.2854C24.1788 18.2854 25.7139 19.8205 25.7139 21.714V23.9997C25.7139 24.6309 25.2022 25.1426 24.571 25.1426C23.9398 25.1426 23.4282 24.6309 23.4282 23.9997V21.714C23.4282 21.0828 22.9165 20.5711 22.2853 20.5711Z" fill="#DAFF00"/>
</svg>
