<svg width="500" height="60" viewBox="0 0 500 60" fill="none" xmlns="http://www.w3.org/2000/svg">
<path d="M49.0154 23.6457L34.1238 22.8415C26.1907 22.4393 21.9606 20.8308 21.9606 17.936C21.9606 14.5593 27.4203 12.466 39.0877 12.466C56.0873 12.466 63.9099 19.2223 63.9099 19.2223L78.8044 11.6617C78.8044 11.6617 66.7743 0 39.099 0C17.3764 0 2.48194 7.39807 2.48194 18.2583C2.48194 29.0359 15.3903 34.5858 34.1323 35.6297L49.0154 36.4367C56.4641 36.8361 62.6689 37.8139 62.6689 41.5019C62.6689 45.3579 55.0984 47.0518 43.0599 47.0518C25.1849 47.0518 14.512 39.5711 14.512 39.5711L0 47.6137C0 47.6137 12.4125 59.5178 42.9438 59.5178C67.1455 59.5178 82.5358 52.1197 82.5358 40.8574C82.5358 29.595 68.3864 24.6924 49.0154 23.6457Z" fill="#F8FFF8"/>
<path d="M123.272 35.9528H179.745V23.5667H123.272V14.0781H180.365V1.60938H104.034V57.9101H180.986V45.4442H123.272V35.9528Z" fill="#F8FFF8"/>
<path d="M334.892 35.9528H391.365V23.5667H334.892V14.0781H391.982V1.60938H315.651V57.9101H392.603V45.4442H334.892V35.9528Z" fill="#F8FFF8"/>
<path d="M480.761 1.60938V46.9728L444.768 1.60938H413.494V57.9101H432.732V13.0287L468.349 57.9101H499.999V1.60938H480.761Z" fill="#F8FFF8"/>
<path d="M272.509 44.3437C260.164 25.7907 232.792 3.55517 201.867 1.59961V21.9291C240.4 29.3437 256.203 57.9086 256.203 57.9086H294.152V1.59961H272.509V44.3437Z" fill="#F8FFF8"/>
</svg>
