<svg width="40" height="40" viewBox="0 0 40 40" fill="none" xmlns="http://www.w3.org/2000/svg">
<circle cx="20" cy="20" r="20" fill="#3F19F9"/>
<path d="M20.5712 9.14258C18.3108 9.14258 16.1012 9.81285 14.2218 11.0686C12.3424 12.3244 10.8775 14.1093 10.0125 16.1976C9.14753 18.2859 8.92121 20.5838 9.36218 22.8008C9.80315 25.0177 10.8916 27.0541 12.4899 28.6524C14.0882 30.2507 16.1246 31.3392 18.3416 31.7801C20.5585 32.2211 22.8564 31.9948 24.9447 31.1298C27.033 30.2648 28.8179 28.7999 30.0737 26.9205C31.3295 25.0411 31.9997 22.8315 31.9997 20.5712C31.9967 17.541 30.7917 14.6359 28.649 12.4933C26.5064 10.3507 23.6013 9.1456 20.5712 9.14258ZM27.3586 17.9574V18.6957C27.3586 18.7522 27.3473 18.8082 27.3253 18.8602C27.3034 18.9123 27.2712 18.9594 27.2307 18.9988C27.1902 19.0383 27.1423 19.0692 27.0896 19.0897C27.037 19.1103 26.9808 19.1201 26.9243 19.1186C25.7176 19.0333 24.5632 18.5927 23.6066 17.8523V23.2557C23.6063 23.8537 23.4869 24.4457 23.2554 24.9971C23.0238 25.5485 22.6848 26.0482 22.258 26.4672C21.8277 26.897 21.316 27.2367 20.7528 27.4663C20.1896 27.6959 19.5862 27.8108 18.978 27.8043C17.755 27.8025 16.5812 27.3226 15.7072 26.4672C15.151 25.9065 14.7505 25.2107 14.5449 24.4482C14.3393 23.6857 14.3357 22.8828 14.5346 22.1186C14.7163 21.3849 15.0832 20.7106 15.6009 20.1609C15.987 19.689 16.4736 19.3093 17.0253 19.0497C17.577 18.7901 18.1797 18.657 18.7894 18.6603H19.7266V20.6066C19.727 20.6631 19.7154 20.7191 19.6924 20.7707C19.6695 20.8224 19.6359 20.8686 19.5937 20.9062C19.5515 20.9439 19.5018 20.9721 19.4478 20.989C19.3939 21.0059 19.337 21.0111 19.2809 21.0043C18.7367 20.8409 18.1504 20.8951 17.6455 21.1555C17.1405 21.4159 16.7565 21.8622 16.5742 22.4004C16.3919 22.9385 16.4257 23.5263 16.6684 24.04C16.9111 24.5537 17.3437 24.9531 17.8752 25.154C18.1837 25.3312 18.5289 25.4352 18.8832 25.4592C19.1574 25.4706 19.4317 25.4363 19.6923 25.354C20.1273 25.2073 20.5057 24.9284 20.7747 24.5564C21.0436 24.1844 21.1898 23.7377 21.1929 23.2786V13.4329C21.1929 13.3239 21.2361 13.2195 21.313 13.1423C21.3899 13.0652 21.4942 13.0217 21.6032 13.0214H23.2203C23.3254 13.0216 23.4264 13.0619 23.5027 13.1341C23.579 13.2064 23.6247 13.3051 23.6306 13.41C23.6895 13.9143 23.8497 14.4014 24.1014 14.8423C24.3532 15.2832 24.6914 15.6687 25.0957 15.9757C25.6421 16.3859 26.2911 16.6374 26.9712 16.7026C27.073 16.7113 27.1683 16.7566 27.2393 16.8302C27.3103 16.9037 27.3523 17.0005 27.3574 17.1026L27.3586 17.9574Z" fill="#DAFF00"/>
</svg>
