<svg width="41" height="41" viewBox="0 0 41 41" fill="none" xmlns="http://www.w3.org/2000/svg">
<circle cx="20.1431" cy="20.5" r="20" fill="#DAFF00"/>
<path d="M20.7142 9.64258C18.4539 9.64258 16.2443 10.3129 14.3648 11.5686C12.4854 12.8244 11.0206 14.6093 10.1556 16.6976C9.2906 18.7859 9.06427 21.0838 9.50525 23.3008C9.94622 25.5177 11.0347 27.5541 12.633 29.1524C14.2313 30.7507 16.2677 31.8392 18.4846 32.2801C20.7015 32.7211 22.9994 32.4948 25.0877 31.6298C27.176 30.7648 28.9609 29.2999 30.2167 27.4205C31.4725 25.5411 32.1428 23.3315 32.1428 21.0712C32.1398 18.041 30.9347 15.1359 28.7921 12.9933C26.6495 10.8507 23.7443 9.6456 20.7142 9.64258ZM27.5016 18.4574V19.1957C27.5017 19.2522 27.4904 19.3082 27.4684 19.3602C27.4464 19.4123 27.4143 19.4594 27.3738 19.4988C27.3333 19.5383 27.2853 19.5692 27.2327 19.5897C27.1801 19.6103 27.1238 19.6201 27.0674 19.6186C25.8607 19.5333 24.7063 19.0927 23.7497 18.3523V23.7557C23.7494 24.3537 23.63 24.9457 23.3985 25.4971C23.1669 26.0485 22.8279 26.5482 22.4011 26.9672C21.9708 27.397 21.4591 27.7367 20.8958 27.9663C20.3326 28.1959 19.7293 28.3108 19.1211 28.3043C17.8981 28.3025 16.7242 27.8226 15.8502 26.9672C15.2941 26.4065 14.8935 25.7107 14.6879 24.9482C14.4823 24.1857 14.4788 23.3828 14.6776 22.6186C14.8594 21.8849 15.2262 21.2106 15.7439 20.6609C16.13 20.189 16.6167 19.8093 17.1684 19.5497C17.7201 19.2901 18.3228 19.157 18.9325 19.1603H19.8697V21.1066C19.8701 21.1631 19.8584 21.2191 19.8355 21.2707C19.8126 21.3224 19.7789 21.3686 19.7367 21.4062C19.6946 21.4439 19.6448 21.4721 19.5909 21.489C19.537 21.5059 19.48 21.5111 19.4239 21.5043C18.8798 21.3409 18.2935 21.3951 17.7885 21.6555C17.2836 21.9159 16.8995 22.3622 16.7172 22.9004C16.535 23.4385 16.5687 24.0263 16.8114 24.54C17.0541 25.0537 17.4868 25.4531 18.0182 25.654C18.3268 25.8312 18.6719 25.9352 19.0262 25.9592C19.3005 25.9706 19.5748 25.9363 19.8354 25.854C20.2704 25.7073 20.6487 25.4284 20.9177 25.0564C21.1867 24.6844 21.3329 24.2377 21.3359 23.7786V13.9329C21.3359 13.8239 21.3791 13.7195 21.456 13.6423C21.5329 13.5652 21.6373 13.5217 21.7462 13.5214H23.3634C23.4684 13.5216 23.5695 13.5619 23.6458 13.6341C23.7221 13.7064 23.7678 13.8051 23.7737 13.91C23.8326 14.4143 23.9928 14.9014 24.2445 15.3423C24.4963 15.7832 24.8345 16.1687 25.2388 16.4757C25.7852 16.8859 26.4341 17.1374 27.1142 17.2026C27.2161 17.2113 27.3113 17.2566 27.3824 17.3302C27.4534 17.4037 27.4954 17.5005 27.5005 17.6026L27.5016 18.4574Z" fill="black"/>
</svg>
